<?xml version="1.0" encoding="utf-8"?>
<!-- Generator: Adobe Illustrator 16.0.4, SVG Export Plug-In . SVG Version: 6.00 Build 0)  -->
<!DOCTYPE svg PUBLIC "-//W3C//DTD SVG 1.1//EN" "http://www.w3.org/Graphics/SVG/1.1/DTD/svg11.dtd">
<svg version="1.1" xmlns="http://www.w3.org/2000/svg" xmlns:xlink="http://www.w3.org/1999/xlink" x="0px" y="0px" width="750px"
	 height="1334px" viewBox="0 0 750 1334" enable-background="new 0 0 750 1334" xml:space="preserve">
<g id="Layer_1">
	<rect fill="#29B473" width="750" height="1333.998"/>
	<polygon fill="#209C64" points="750,1333.998 0,1333.998 750,0 	"/>
</g>
<g id="Layer_2" display="none">
	<rect x="-4424.759" y="1100.072" display="inline" fill="#209C64" width="750" height="69.371"/>
	<text transform="matrix(1 0 0 1 -3205.4883 310.2148)" display="inline"><tspan x="0" y="0" fill="#FFFFFF" font-family="'Novecento-LightWide'" font-size="51.4066">ca</tspan><tspan x="79.32" y="0" fill="#FFFFFF" font-family="'Novecento-LightWide'" font-size="51.4066" letter-spacing="1">CHAT</tspan><tspan x="0" y="61.688" fill="#FFFFFF" font-family="'Novecento-LightWide'" font-size="51.4066">MAPA</tspan></text>
	<g display="inline">
		<path fill="#FFFFFF" d="M-2954.69,345.124c-2.827-4.935-8.069-8.019-14.238-8.019c-9.304,0-16.604,6.734-16.604,16.809
			c0,9.921,7.3,16.809,16.604,16.809c6.579,0,12.183-3.546,14.906-9.047l1.954,0.566c-3.032,6.374-9.355,10.383-16.86,10.383
			c-10.332,0-18.659-7.865-18.659-18.71s8.327-18.71,18.659-18.71c7.043,0,13.107,3.649,16.346,9.355L-2954.69,345.124z"/>
		<path fill="#FFFFFF" d="M-2917.729,335.922v35.982h-2.056v-17.991h-22.721v17.991h-2.056v-35.982h2.056v16.089h22.721v-16.089
			H-2917.729z"/>
		<path fill="#FFFFFF" d="M-2880.408,360.75h-22.309l-5.757,11.154h-2.159l18.607-35.982h0.926l18.607,35.982h-2.159
			L-2880.408,360.75z M-2881.385,358.848l-9.869-19.122l-0.309-0.823l-0.309,0.823l-9.869,19.122H-2881.385z"/>
		<path fill="#FFFFFF" d="M-2847.045,335.922v1.902h-12.594v34.08h-2.056v-34.08h-12.542v-1.902H-2847.045z"/>
	</g>
	<text transform="matrix(1 0 0 1 -3205.4883 546.3042)" display="inline"><tspan x="0" y="0" fill="#FFFFFF" font-family="'Novecento-LightWide'" font-size="51.4066">MENÚ</tspan><tspan x="0" y="61.688" fill="#FFFFFF" font-family="'Novecento-LightWide'" font-size="51.4066">CHAT</tspan><tspan x="0" y="123.375" fill="#FFFFFF" font-family="'Novecento-LightWide'" font-size="51.4066">MAPA</tspan></text>
	<g display="inline">
		<path fill="#FFFFFF" d="M-2956.54,510.324v35.982h-4.473v-26.524l0.104-1.542l-0.72,1.542l-10.692,17.683h-1.953l-10.691-17.683
			l-0.72-1.491l0.103,1.491v26.524h-4.472v-35.982h4.215l12.028,19.893l0.514,1.028l0.463-1.028l12.08-19.893H-2956.54z"/>
		<path fill="#FFFFFF" d="M-2917.471,542.142v4.164h-24.468v-35.982h24.159v4.164h-19.688v10.846h15.832v4.061h-15.832v12.748
			H-2917.471z"/>
		<path fill="#FFFFFF" d="M-2874.084,510.324v35.982h-4.215l-20.458-27.038l-0.721-1.131l0.104,1.491v26.678h-4.473v-35.982h4.164
			l20.51,26.883l0.668,1.183l-0.103-1.491v-26.575H-2874.084z"/>
		<path fill="#FFFFFF" d="M-2830.234,510.324v21.023c0,9.87-5.604,15.729-15.112,15.729c-9.561,0-15.164-5.86-15.164-15.729v-21.023
			h4.523v21.229c0,6.991,3.701,11.308,10.641,11.308s10.589-4.317,10.589-11.308v-21.229H-2830.234z M-2837.739,503.076
			l-11.309,5.346l-1.439-2.519l11.104-5.962L-2837.739,503.076z"/>
		<path fill="#FFFFFF" d="M-2962.144,581.932c-2.364-3.855-6.836-6.271-11.771-6.271c-8.071,0-14.033,5.808-14.033,14.341
			c0,8.532,6.116,14.29,14.033,14.29c5.448,0,10.177-2.879,12.439-7.248l4.472,1.233c-3.033,6.374-9.355,10.435-16.911,10.435
			c-10.332,0-18.659-7.865-18.659-18.71c0-10.846,8.327-18.711,18.659-18.711c7.093,0,13.159,3.701,16.346,9.407L-2962.144,581.932z
			"/>
		<path fill="#FFFFFF" d="M-2917.882,572.012v35.982h-4.473v-16.5h-19.327v16.5h-4.472v-35.982h4.472v15.267h19.327v-15.267
			H-2917.882z"/>
		<path fill="#FFFFFF" d="M-2878.248,599.255h-20.252l-4.369,8.738h-4.935l17.99-35.982h2.879l17.991,35.982h-4.935
			L-2878.248,599.255z M-2880.304,595.092l-7.711-15.421l-0.359-1.08l-0.359,1.08l-7.711,15.421H-2880.304z"/>
		<path fill="#FFFFFF" d="M-2838.355,572.012v4.164h-11.977v31.818h-4.472v-31.818h-11.926v-4.164H-2838.355z"/>
		<path fill="#FFFFFF" d="M-2956.54,633.699v35.982h-4.473v-26.524l0.104-1.542l-0.72,1.542l-10.692,17.682h-1.953l-10.691-17.682
			l-0.72-1.491l0.103,1.491v26.524h-4.472v-35.982h4.215l12.028,19.893l0.514,1.028l0.463-1.028l12.08-19.893H-2956.54z"/>
		<path fill="#FFFFFF" d="M-2916.905,660.943h-20.252l-4.369,8.739h-4.935l17.99-35.982h2.879l17.991,35.982h-4.935
			L-2916.905,660.943z M-2918.961,656.779l-7.71-15.421l-0.359-1.08l-0.36,1.08l-7.71,15.421H-2918.961z"/>
		<path fill="#FFFFFF" d="M-2886.315,633.699c8.429,0,13.467,4.318,13.467,11.514s-5.038,11.566-13.467,11.566h-6.734v12.902h-4.473
			v-35.982H-2886.315z M-2886.367,652.564c5.757,0,8.893-2.776,8.893-7.351c0-4.729-3.393-7.351-8.893-7.351h-6.683v14.702
			H-2886.367z"/>
		<path fill="#FFFFFF" d="M-2840.515,660.943h-20.252l-4.37,8.739h-4.935l17.991-35.982h2.879l17.991,35.982h-4.936
			L-2840.515,660.943z M-2842.57,656.779l-7.711-15.421l-0.359-1.08l-0.36,1.08l-7.71,15.421H-2842.57z"/>
	</g>
	<path display="inline" fill="#FFFFFF" d="M-2952.839,261.542v35.981h-2.057v-30.841l0.103-1.748l-0.771,1.748l-12.8,22h-1.028
		l-12.799-22l-0.771-1.645l0.104,1.645v30.841h-2.057v-35.981h1.902l13.725,23.594l0.411,0.925l0.411-0.925l13.725-23.594H-2952.839
		z"/>
	<path display="inline" fill="#FFFFFF" d="M-2919.271,295.621v1.902h-23.284v-35.981h22.977v1.902h-20.921v13.725h17.015v1.902
		h-17.015v16.551H-2919.271z"/>
	<path display="inline" fill="#FFFFFF" d="M-2882.053,261.542v35.981h-1.902l-23.696-31.612l-0.72-1.028l0.103,1.542v31.098h-2.057
		v-35.981h1.902l23.748,31.51l0.668,1.13l-0.103-1.593v-31.047H-2882.053z"/>
	<path display="inline" fill="#FFFFFF" d="M-2843.601,261.542v21.589c0,9.355-4.936,15.164-14.496,15.164
		c-9.51,0-14.496-5.809-14.496-15.164v-21.589h2.057v21.743c0,8.122,4.215,13.108,12.439,13.108c8.275,0,12.439-4.986,12.439-13.108
		v-21.743H-2843.601z M-2851.003,253.934l-10.486,5.397l-0.771-1.336l10.384-5.603L-2851.003,253.934z"/>
	<path display="inline" fill="#FFFFFF" d="M-2952.839,397.61v35.982h-2.057V402.75l0.103-1.748l-0.771,1.748l-12.8,22h-1.028
		l-12.799-22l-0.771-1.645l0.104,1.645v30.841h-2.057V397.61h1.902l13.725,23.594l0.411,0.925l0.411-0.925l13.725-23.594H-2952.839z
		"/>
	<path display="inline" fill="#FFFFFF" d="M-2916.547,422.438h-22.309l-5.757,11.154h-2.159l18.607-35.982h0.926l18.608,35.982
		h-2.16L-2916.547,422.438z M-2917.523,420.536l-9.869-19.122l-0.308-0.822l-0.31,0.822l-9.869,19.122H-2917.523z"/>
	<path display="inline" fill="#FFFFFF" d="M-2892.796,397.61c8.122,0,13.005,4.164,13.005,11.052s-4.883,11.052-13.005,11.052
		h-7.711v13.878h-2.055V397.61H-2892.796z M-2892.796,417.811c7.145,0,10.949-3.495,10.949-9.149c0-5.963-4.215-9.15-10.949-9.15
		h-7.711v18.299H-2892.796z"/>
	<path display="inline" fill="#FFFFFF" d="M-2851.208,422.438h-22.309l-5.758,11.154h-2.158l18.607-35.982h0.926l18.607,35.982
		h-2.159L-2851.208,422.438z M-2852.185,420.536l-9.869-19.122l-0.309-0.822l-0.309,0.822l-9.869,19.122H-2852.185z"/>
	<g display="inline">
		<path fill="#209C64" d="M-3058.22,802.728c-3.547,0-6.385,2.826-6.385,6.374c0,3.559,2.838,6.527,6.385,6.527
			c3.713,0,6.527-2.969,6.527-6.527C-3051.692,805.554-3054.507,802.728-3058.22,802.728z"/>
		<path fill="#FFFFFF" d="M-3058.22,796.354c-7.26,0-13.196,5.936-13.196,13.197c0,7.414,13.196,24.454,13.196,24.454
			c0.615-0.733,13.221-17.193,13.221-24.454C-3044.999,802.289-3050.935,796.508-3058.22,796.354z M-3058.22,815.629
			c-3.547,0-6.385-2.969-6.385-6.527c0-3.548,2.838-6.374,6.385-6.374c3.713,0,6.527,2.826,6.527,6.374
			C-3051.692,812.66-3054.507,815.629-3058.22,815.629z"/>
	</g>
	<g display="inline">
		<g>
			<path fill="none" stroke="#FFFFFF" stroke-width="8" stroke-linecap="round" stroke-miterlimit="10" d="M-2602.34,1128.422
				c-29.532,0-53.683,24.15-53.683,53.688c0,30.16,50.961,108.695,50.961,108.695c1.497,2.307,3.941,2.304,5.433-0.007
				c0,0,51.071-79.153,51.071-108.688C-2548.558,1152.572-2572.703,1129.047-2602.34,1128.422z M-2602.34,1206.836
				c-14.431,0-25.976-12.074-25.976-26.559c0-14.429,11.545-25.925,25.976-25.925c15.106,0,26.556,11.496,26.556,25.925
				C-2575.784,1194.762-2587.233,1206.836-2602.34,1206.836z"/>
		</g>
	</g>
	<g display="inline">
		<path fill="#FFFFFF" d="M-2742.751,1296.534L-2742.751,1296.534c-2.394-0.001-4.606-1.295-6.071-3.551
			c-2.107-3.248-51.605-79.885-51.605-110.873c0-31.81,25.876-57.688,57.683-57.688c15.514,0.326,29.981,6.42,40.82,17.16
			c10.938,10.838,16.962,25.231,16.962,40.528c0,30.364-49.599,107.585-51.71,110.857
			C-2738.136,1295.234-2740.351,1296.534-2742.751,1296.534z M-2742.83,1132.421c-27.311,0.001-49.598,22.291-49.598,49.689
			c0,11.66,8.634,33.688,24.97,63.701c10.915,20.055,21.963,37.53,24.704,41.815c2.74-4.307,13.819-21.917,24.765-42.05
			c16.373-30.115,25.027-52.062,25.027-63.467c0-13.146-5.183-25.521-14.593-34.845
			C-2716.932,1137.975-2729.459,1132.703-2742.83,1132.421z M-2742.745,1210.836c-16.529,0-29.976-13.709-29.976-30.559
			c0-16.501,13.447-29.925,29.976-29.925c17.134,0,30.556,13.145,30.556,29.925
			C-2712.189,1197.413-2725.611,1210.836-2742.745,1210.836z M-2742.745,1158.353c-12.323,0-21.976,9.631-21.976,21.925
			c0,12.438,9.858,22.559,21.976,22.559c12.648,0,22.556-9.909,22.556-22.559
			C-2720.189,1167.983-2730.097,1158.353-2742.745,1158.353z"/>
	</g>
	<rect x="-1355.315" y="-282.297" display="inline" fill="#209C64" width="107.115" height="107.115"/>
	<path display="inline" fill="#29B473" d="M-1660.866-147.977c12.706,0.09,20.341,10.252,20.313,22.364l2.25-2.25h-77.945l2.25,2.25
		c-0.029-12.109,7.605-22.274,20.312-22.364c-0.647-0.371-1.296-0.743-1.943-1.114c2.733,3.72,6.701,6.765,11.031,8.357
		c9.557,3.513,18.476-1.34,25.322-7.902c2.095-2.008-1.09-5.187-3.182-3.182c-7.858,7.531-18.034,10.911-26.832,3.014
		c-2.501-2.245-2.822-3.923-6.501-3.513c-14.316,1.595-22.741,12.573-22.708,26.704c0.002,1.217,1.027,2.25,2.25,2.25h77.945
		c1.217,0,2.246-1.031,2.25-2.25c0.033-14.559-9.623-26.757-24.813-26.864C-1663.763-152.497-1663.766-147.997-1660.866-147.977"/>
	<path display="inline" fill="#29B473" d="M-1692.947-148.1l-1.476-4.252c1.142-0.395,2.219-0.607,3.085-0.776
		c0.646-0.127,1.729-0.339,1.903-0.532c0.003-0.004,0.359-0.534-0.093-3.011l4.427-0.809c1.257,6.877-1.824,8.071-5.371,8.767
		C-1691.275-148.555-1692.105-148.393-1692.947-148.1"/>
	<path display="inline" fill="#29B473" d="M-1662.082-147.766c-0.843-0.292-1.673-0.455-2.475-0.612
		c-3.549-0.696-6.63-1.89-5.372-8.768l4.426,0.811c-0.452,2.475-0.096,3.006-0.092,3.009c0.175,0.193,1.257,0.405,1.904,0.532
		c0.864,0.17,1.941,0.381,3.084,0.776L-1662.082-147.766z"/>
	<path display="inline" fill="#29B473" d="M-1591.072-148.1l-1.475-4.252c1.143-0.395,2.219-0.607,3.085-0.776
		c0.647-0.127,1.729-0.339,1.903-0.532c0.004-0.004,0.36-0.533-0.092-3.011l4.427-0.809c1.257,6.877-1.824,8.071-5.372,8.767
		C-1589.398-148.555-1590.229-148.393-1591.072-148.1"/>
	<path display="inline" fill="#29B473" d="M-1560.205-147.766c-0.843-0.292-1.673-0.455-2.475-0.612
		c-3.549-0.696-6.63-1.89-5.373-8.767l4.426,0.809c-0.451,2.478-0.095,3.007-0.091,3.01c0.174,0.193,1.256,0.405,1.904,0.532
		c0.864,0.17,1.941,0.381,3.084,0.776L-1560.205-147.766z"/>
	<path display="inline" fill="#29B473" d="M-1678.183-151.668c-5.992,0-11.295-3.014-14.935-8.487
		c-3.184-4.787-4.937-11.097-4.937-17.768c0-7.579,0.421-12.513,6.252-17.119l0.765-0.604l0.963,0.144
		c7.43,1.111,19.315,4.284,27.182,6.383l3.251,0.867l0.459,0.878c1.878,3.591,2.034,7.554,2.034,11.638
		C-1657.148-161.791-1665.994-151.668-1678.183-151.668 M-1689.748-190.895c-3.444,3.067-3.806,6.312-3.806,12.972
		c0,10.546,5.387,21.755,15.371,21.755c9.581,0,16.534-8.23,16.534-19.568c0-3.255-0.092-6.183-1.121-8.693l-1.284-0.342
		C-1671.474-186.751-1682.518-189.7-1689.748-190.895"/>
	<path display="inline" fill="#29B473" d="M-1693.634-186.307c-0.906-6.17-1.591-17.196,6.821-18.072
		c1.908-0.199,3.78,0.584,5.69,0.225c1.353-0.255,1.871-0.745,2.86-1.578c1.048-0.882-0.678,0.196-0.696,0.198
		c0.313-0.037,0.912-0.09,1.186-0.012c2.684,0.77,5.934,0.629,8.716,1.185c3.192,0.636,6.44,1.369,9.49,2.526
		c4.163,1.579,4.344,3.536,3.092,7.982c-0.783,2.786-2.142,5.488-3.717,7.916c0.848-0.345,1.694-0.689,2.541-1.034
		c-10.748-3.391-21.127-6.179-32.158-8.476c-1.064-0.221-1.927,0.172-2.541,1.034c-1.8,2.523-3.598,5.046-5.396,7.569
		c-1.686,2.362,2.216,4.611,3.885,2.271l5.397-7.568c-0.847,0.344-1.694,0.689-2.541,1.034c11.032,2.296,21.411,5.085,32.159,8.475
		c0.98,0.311,2.01-0.216,2.541-1.034c3.218-4.959,8.548-15.833,2.366-20.411c-5.81-4.303-16.467-5.829-23.521-5.955
		c-1.009-0.018-2.28-0.152-3.205,0.35c-0.435,0.235-0.864,0.864-1.228,1.021c-1.229,0.532,0.541-0.023-0.744,0.081
		c-3.412,0.276-5.927-0.732-9.312,1.18c-7.665,4.327-7.136,14.716-6.023,22.289C-1697.555-182.256-1693.217-183.47-1693.634-186.307
		"/>
	<path display="inline" fill="#29B473" d="M-1558.903-148.535c12.706,0.09,20.341,10.252,20.313,22.364l2.25-2.25h-77.945l2.25,2.25
		c-0.029-12.109,7.605-22.274,20.312-22.364c-0.647-0.371-1.296-0.743-1.942-1.114c2.733,3.72,6.7,6.765,11.03,8.357
		c9.557,3.513,18.476-1.34,25.322-7.902c2.096-2.008-1.09-5.187-3.182-3.182c-7.858,7.531-18.034,10.911-26.832,3.014
		c-2.501-2.245-2.822-3.923-6.501-3.512c-14.316,1.594-22.741,12.572-22.708,26.703c0.002,1.217,1.028,2.25,2.25,2.25h77.945
		c1.218,0,2.246-1.031,2.25-2.25c0.033-14.559-9.622-26.757-24.813-26.864C-1561.799-153.055-1561.803-148.555-1558.903-148.535"/>
	<path display="inline" fill="#29B473" d="M-1576.22-152.227c-5.992,0-11.295-3.014-14.935-8.487
		c-3.184-4.787-4.937-11.097-4.937-17.768c0-7.579,0.421-12.513,6.252-17.119l0.765-0.604l0.963,0.144
		c7.427,1.11,19.311,4.283,27.175,6.381l3.259,0.869l0.459,0.878c1.877,3.592,2.033,7.555,2.033,11.638
		C-1555.186-162.35-1564.031-152.227-1576.22-152.227 M-1587.785-191.454c-3.444,3.067-3.806,6.312-3.806,12.972
		c0,10.546,5.387,21.755,15.371,21.755c9.581,0,16.534-8.23,16.534-19.568c0-3.255-0.092-6.183-1.12-8.693l-1.292-0.344
		C-1569.516-187.312-1580.556-190.258-1587.785-191.454"/>
	<path display="inline" fill="#29B473" d="M-1591.671-186.865c-0.906-6.17-1.591-17.196,6.821-18.072
		c1.908-0.199,3.78,0.584,5.69,0.224c1.354-0.254,1.871-0.744,2.861-1.577c1.047-0.882-0.679,0.196-0.697,0.198
		c0.314-0.037,0.912-0.09,1.187-0.012c2.683,0.77,5.933,0.629,8.717,1.185c3.19,0.636,6.438,1.369,9.488,2.526
		c4.164,1.579,4.345,3.536,3.093,7.982c-0.784,2.786-2.142,5.488-3.718,7.916c0.848-0.345,1.694-0.689,2.541-1.034
		c-10.748-3.391-21.127-6.179-32.158-8.476c-1.064-0.221-1.926,0.172-2.541,1.034c-1.799,2.523-3.598,5.046-5.396,7.569
		c-1.685,2.362,2.216,4.611,3.885,2.271l5.397-7.568c-0.847,0.344-1.694,0.689-2.541,1.034c11.032,2.296,21.411,5.085,32.159,8.475
		c0.98,0.311,2.01-0.216,2.541-1.034c3.218-4.959,8.548-15.833,2.367-20.412c-5.811-4.302-16.468-5.828-23.522-5.954
		c-1.008-0.018-2.28-0.152-3.205,0.35c-0.434,0.235-0.864,0.864-1.227,1.021c-1.229,0.531,0.541-0.023-0.744,0.081
		c-3.413,0.276-5.927-0.732-9.313,1.18c-7.665,4.327-7.136,14.716-6.023,22.289
		C-1595.591-182.814-1591.254-184.028-1591.671-186.865"/>
	<path display="inline" fill="#29B473" d="M-1600.605-206.039c-0.729,0-1.443-0.314-1.933-0.887l-13.971-16.334h-13.529v-4.5h15.603
		l11.857,13.864v-13.864h54.325c4.987,0,9.044-4.057,9.044-9.044v-49.168c0-4.988-4.057-9.044-9.044-9.044h-60.03v-4.501h60.03
		c7.468,0,13.544,6.076,13.544,13.545v49.168c0,7.468-6.076,13.544-13.544,13.544h-49.825v14.688c0,1.057-0.666,2.012-1.656,2.377
		C-1600.018-206.089-1600.313-206.039-1600.605-206.039 M-1599.119-209.852l0.002,0.002
		C-1599.117-209.851-1599.119-209.851-1599.119-209.852"/>
	<path display="inline" fill="#29B473" d="M-1546.371-283.916h-44.695c-2.895,0-2.899,4.5,0,4.5h44.695
		C-1543.475-279.416-1543.471-283.916-1546.371-283.916"/>
	<path display="inline" fill="#29B473" d="M-1546.407-268.967h-58.001c-2.895,0-2.9,4.5,0,4.5h58.001
		C-1543.511-264.467-1543.507-268.967-1546.407-268.967"/>
	<path display="inline" fill="#29B473" d="M-1546.407-255.575h-10.125c-2.896,0-2.901,4.5,0,4.5h10.125
		C-1543.511-251.075-1543.507-255.575-1546.407-255.575"/>
	<path display="inline" fill="#29B473" d="M-1567.844-255.575h-36.539c-2.896,0-2.9,4.5,0,4.5h36.539
		C-1564.948-251.075-1564.944-255.575-1567.844-255.575"/>
	<path display="inline" fill="#29B473" d="M-1546.407-240.015h-37.911c-2.895,0-2.899,4.5,0,4.5h37.911
		C-1543.511-235.515-1543.507-240.015-1546.407-240.015"/>
	<path display="inline" fill="#29B473" d="M-1593.84-239.995h-10.623c-2.896,0-2.9,4.5,0,4.5h10.623
		C-1590.944-235.495-1590.94-239.995-1593.84-239.995"/>
	<path display="inline" fill="#29B473" d="M-1600.348-283.627h-4.061c-1.216,0-2.25,1.034-2.25,2.25c0,1.22,1.03,2.25,2.25,2.25
		h4.061c1.215,0,2.25-1.034,2.25-2.25C-1598.098-282.597-1599.128-283.627-1600.348-283.627"/>
	<path display="inline" fill="#29B473" d="M-1626.046-227.751h-4.06c-1.217,0-2.25,1.034-2.25,2.25c0,1.22,1.029,2.25,2.25,2.25
		h4.06c1.216,0,2.25-1.034,2.25-2.25C-1623.796-226.722-1624.826-227.751-1626.046-227.751"/>
	<path display="inline" fill="#29B473" d="M-1603.847-299.517h-4.06c-1.217,0-2.25,1.034-2.25,2.25c0,1.22,1.029,2.25,2.25,2.25
		h4.06c1.216,0,2.25-1.034,2.25-2.25C-1601.597-298.486-1602.627-299.517-1603.847-299.517"/>
	<g display="inline">
		<path fill="#FFFFFF" d="M-2910.804,1281.048c-0.474,0-0.953-0.083-1.417-0.251c-1.61-0.594-2.692-2.146-2.692-3.861v-23.864
			h-80.945c-12.132,0-22.003-9.871-22.003-22.002v-79.88c0-12.132,9.871-22.003,22.003-22.003h132.866
			c12.134,0,22.003,9.871,22.003,22.003v79.88c0,12.131-9.87,22.002-22.003,22.002h-21.979l-22.698,26.539
			C-2908.461,1280.54-2909.622,1281.048-2910.804,1281.048 M-2913.224,1274.856c-0.001,0-0.003,0.004-0.003,0.004
			L-2913.224,1274.856z M-2995.858,1136.497c-8.101,0-14.693,6.591-14.693,14.692v79.88c0,8.101,6.592,14.691,14.693,14.691h88.255
			v22.524l19.267-22.524h25.344c8.103,0,14.693-6.591,14.693-14.691v-79.88c0-8.102-6.59-14.692-14.693-14.692H-2995.858z"/>
		<path fill="#FFFFFF" d="M-2990.489,1158.512h86.698c4.704,0,4.713-7.311,0-7.311h-86.698
			C-2995.195,1151.201-2995.201,1158.512-2990.489,1158.512"/>
		<path fill="#FFFFFF" d="M-2990.419,1182.797h124.415c4.704,0,4.712-7.311,0-7.311h-124.415
			C-2995.124,1175.486-2995.13,1182.797-2990.419,1182.797"/>
		<path fill="#FFFFFF" d="M-2990.419,1204.555h19.641c4.704,0,4.712-7.311,0-7.311h-19.641
			C-2995.124,1197.244-2995.13,1204.555-2990.419,1204.555"/>
		<path fill="#FFFFFF" d="M-2948.836,1204.555h82.833c4.703,0,4.71-7.311,0-7.311h-82.833
			C-2953.541,1197.244-2953.548,1204.555-2948.836,1204.555"/>
		<path fill="#FFFFFF" d="M-2990.419,1229.832h73.539c4.704,0,4.713-7.31,0-7.31h-73.539
			C-2995.124,1222.522-2995.13,1229.832-2990.419,1229.832"/>
		<path fill="#FFFFFF" d="M-2889.911,1229.832h23.908c4.703,0,4.71-7.31,0-7.31h-23.908
			C-2894.617,1222.522-2894.623,1229.832-2889.911,1229.832"/>
		<path fill="#FFFFFF" d="M-2885.785,1158.512h15.749c4.704,0,4.712-7.311,0-7.311h-15.749
			C-2890.49,1151.201-2890.497,1158.512-2885.785,1158.512"/>
	</g>
	<g display="inline">
		<path d="M-2678.239-111.398l-55.039-49.204h-136.801V-209h-16.723v48.398h-88.398v98.403h88.398V183h16.723V-62.199h136.801
			L-2678.239-111.398z M-2958.481-78.922v-65.039h218.48l35.84,32.563l-35.84,32.558h-218.48V-78.922z M-2958.481-78.922"/>
	</g>
	<g display="inline">
		<g>
			<defs>
				<rect id="SVGID_1_" x="-3015.2" y="-188" width="376.8" height="350.88"/>
			</defs>
			<clipPath id="SVGID_2_">
				<use xlink:href="#SVGID_1_"  overflow="visible"/>
			</clipPath>
			<path clip-path="url(#SVGID_2_)" d="M-2649.04-17.12c-6,0-10.801,4.801-10.801,10.801v98.238
				c0,26.719-21.758,48.403-48.398,48.403H-2945.2c-26.719,0-48.398-21.763-48.398-48.403V-7.92c0-6-4.801-10.801-10.801-10.801
				S-3015.2-13.92-3015.2-7.92v99.839c0,38.641,31.441,70,70,70h236.961c38.641,0,70-31.438,70-70V-6.319
				C-2638.239-12.241-2643.04-17.12-2649.04-17.12L-2649.04-17.12z M-2649.04-17.12"/>
		</g>
		<path d="M-2834.321,76.162c2.082,2.078,4.883,3.199,7.601,3.199c2.719,0,5.52-1.039,7.598-3.199l68.641-68.642
			c4.242-4.241,4.242-11.039,0-15.28c-4.238-4.239-11.039-4.239-15.277,0l-50.16,50.241v-219.121c0-6-4.801-10.801-10.801-10.801
			c-6,0-10.8,4.801-10.8,10.801V42.481l-50.239-50.241c-4.242-4.239-11.043-4.239-15.281,0c-4.238,4.241-4.238,11.039,0,15.28
			L-2834.321,76.162z M-2834.321,76.162"/>
	</g>
	<g display="inline">
		<g>
			<defs>
				<rect id="SVGID_3_" x="-2847.2" y="-33" width="42" height="41.76"/>
			</defs>
			<clipPath id="SVGID_4_">
				<use xlink:href="#SVGID_3_"  overflow="visible"/>
			</clipPath>
			<path clip-path="url(#SVGID_4_)" d="M-2806.118-32.29c-0.234-0.242-0.602-0.313-0.906-0.168l-39.711,18.223
				c-0.317,0.148-0.504,0.484-0.457,0.832c0.047,0.351,0.312,0.625,0.66,0.683l17.809,2.985l2.039,16.832
				c0.043,0.352,0.308,0.632,0.656,0.691c0.047,0.008,0.094,0.012,0.137,0.012c0.301,0,0.582-0.168,0.719-0.446l19.199-38.729
				C-2805.825-31.681-2805.884-32.044-2806.118-32.29L-2806.118-32.29z M-2825.419,4.245l-1.785-14.767
				c-0.043-0.351-0.312-0.632-0.664-0.69l-15.832-2.656l35.289-16.196L-2825.419,4.245z M-2825.419,4.245"/>
		</g>
	</g>
	<g display="inline">
		<path d="M-2814.747-13.859l-23.199-16c-0.246-0.168-0.563-0.187-0.824-0.05c-0.266,0.14-0.43,0.41-0.43,0.711v32
			c0,0.296,0.164,0.57,0.43,0.707c0.113,0.062,0.242,0.089,0.371,0.089c0.16,0,0.316-0.046,0.453-0.14l23.199-16
			c0.219-0.149,0.348-0.396,0.348-0.656C-2814.399-13.464-2814.528-13.71-2814.747-13.859L-2814.747-13.859z M-2837.598,1.277
			v-28.953l20.988,14.477L-2837.598,1.277z M-2837.598,1.277"/>
	</g>
	<g display="inline">
		<path d="M-3480.962-6.518c-4.16-24.723-16.398-47.281-35.117-64.402c-20.801-19.04-47.84-29.52-76-29.52
			c-21.761,0-42.961,6.238-61.121,18c-15.121,9.762-27.68,22.961-36.558,38.48c-3.84-0.718-7.84-1.121-11.84-1.121
			c-34,0-61.684,27.68-61.684,61.68c0,4.402,0.481,8.641,1.281,12.801c-22,16-35.359,41.762-35.359,69.199
			c0,22.16,8.238,43.68,23.281,60.723c15.438,17.438,35.84,27.758,57.598,28.957h69.441c6,0,10.801-4.797,10.801-10.797
			s-4.801-10.801-10.801-10.801h-68.48c-32.719-2-60.238-33.121-60.238-68.16c0-22.641,12.16-43.762,31.757-55.199
			c4.563-2.641,6.481-8.16,4.719-13.121c-1.598-4.321-2.398-8.879-2.398-13.762c0-22.078,18-40.078,40.082-40.078
			c4.718,0,9.359,0.801,13.679,2.398c5.278,1.922,11.118-0.48,13.52-5.519c14.961-31.758,47.277-52.239,82.398-52.239
			c47.199,0,86.16,35.36,90.641,82.239c0.48,4.879,4.16,8.8,8.961,9.601c35.598,6.078,62.48,38.957,62.48,76.48
			c0,39.758-31.281,74.316-69.84,77.277h-58.961c-6,0-10.801,4.801-10.801,10.801s4.801,10.801,10.801,10.801h60.16
			c24.398-1.762,47.199-12.961,64.16-31.68c16.879-18.562,26.078-42.402,26.078-67.199
			C-3408.399,44.439-3439.04,4.521-3480.962-6.518L-3480.962-6.518z M-3480.962-6.518"/>
		<path d="M-3538.001,108.842c4.242-4.242,4.242-11.043,0-15.281l-57.199-57.199c-2-2-4.801-3.199-7.601-3.199
			c-2.797,0-5.598,1.117-7.598,3.199l-57.199,57.199c-4.242,4.238-4.242,11.039,0,15.281c2.078,2.078,4.879,3.199,7.597,3.199
			c2.719,0,5.52-1.039,7.602-3.199l38.801-38.801v178.321c0,6,4.797,10.801,10.797,10.801c6,0,10.8-4.801,10.8-10.801V70.041
			l38.801,38.801C-3549.04,113.08-3542.239,113.08-3538.001,108.842L-3538.001,108.842z M-3538.001,108.842"/>
	</g>
	<path display="inline" fill="#FFFFFF" stroke="#FFFFFF" stroke-miterlimit="10" d="M-2741.065,959.391
		c4.619,0.711,9.008,2.051,13.19,4.146c2.582,1.293,4.864-2.587,2.271-3.886c-4.524-2.268-9.258-3.827-14.266-4.599
		C-2742.703,954.615-2743.924,958.951-2741.065,959.391"/>
	<path display="inline" fill="#FFFFFF" stroke="#FFFFFF" stroke-miterlimit="10" d="M-2788.079,1000.433
		c0.402-21.011,15.549-38.019,36.263-41.106c2.854-0.426,1.641-4.762-1.196-4.339c-22.691,3.383-39.129,22.61-39.566,45.445
		C-2792.634,1003.33-2788.134,1003.33-2788.079,1000.433"/>
	<path display="inline" fill="#FFFFFF" stroke="#FFFFFF" stroke-miterlimit="10" d="M-2716.096,1000.67
		c-0.265,12.755-7.943,24.371-20.054,28.852c-12.076,4.465-25.904,0.791-34.227-9.01c-18.308-21.56,1.359-55.207,29.07-50.108
		C-2726.655,973.1-2716.401,985.969-2716.096,1000.67c0.06,2.893,4.56,2.902,4.5,0c-0.302-14.57-9.001-27.691-22.735-32.963
		c-13.896-5.335-30.17-1.009-39.649,10.434c-9.345,11.28-10.751,27.661-3.332,40.328c7.394,12.623,22.151,19.389,36.538,16.932
		c16.918-2.887,28.828-17.844,29.179-34.73C-2711.536,997.773-2716.036,997.773-2716.096,1000.67"/>
	<path display="inline" fill="#FFFFFF" stroke="#FFFFFF" stroke-miterlimit="10" d="M-2735.892,1095.051h-23.041
		c-3.144,0-5.701-2.559-5.701-5.701v-11.26c-9.16-2.062-17.781-5.701-25.68-10.838l-7.227,7.225
		c-1.074,1.074-2.506,1.666-4.031,1.666s-2.957-0.592-4.031-1.666l-16.293-16.293c-2.223-2.221-2.223-5.838,0-8.061l7.437-7.438
		c-5.022-8.016-8.521-16.752-10.423-26.02h-10.405c-3.144,0-5.701-2.558-5.701-5.701v-23.043c0-3.144,2.557-5.7,5.701-5.7h10.902
		c2.058-8.704,5.537-16.908,10.362-24.435l-8.692-8.692c-2.223-2.222-2.223-5.839,0-8.062l16.293-16.294
		c2.223-2.222,5.84-2.222,8.062,0l8.747,8.747c7.708-4.898,16.096-8.388,24.979-10.388v-10.601c0-3.143,2.558-5.699,5.701-5.699
		h23.041c3.145,0,5.701,2.557,5.701,5.699v10.467c8.957,1.938,17.417,5.382,25.196,10.256l8.151-8.151
		c2.222-2.222,5.838-2.222,8.062,0l16.293,16.294c1.075,1.074,1.666,2.505,1.666,4.031c0,1.525-0.591,2.956-1.665,4.031
		l-7.941,7.939c4.974,7.649,8.547,15.994,10.643,24.856h11.351c3.144,0,5.7,2.557,5.7,5.7v23.043c0,3.144-2.557,5.701-5.7,5.701
		h-10.854c-1.938,9.447-5.526,18.33-10.689,26.455l6.671,6.672c2.223,2.223,2.223,5.838,0,8.061l-16.293,16.293
		c-2.223,2.223-5.839,2.223-8.062,0.002l-6.616-6.617c-7.956,5.102-16.655,8.689-25.911,10.691v11.127
		C-2730.19,1092.492-2732.747,1095.051-2735.892,1095.051 M-2790.871,1061.443l1.541,1.055c8.327,5.693,17.542,9.586,27.39,11.564
		l1.807,0.363v14.924c0,0.65,0.551,1.201,1.201,1.201h23.041c0.651,0,1.201-0.551,1.201-1.201v-14.824l1.826-0.35
		c9.949-1.912,19.243-5.746,27.623-11.396l1.537-1.037l9.223,9.223c0.46,0.461,1.239,0.461,1.699,0l16.293-16.293
		c0.46-0.459,0.46-1.238,0-1.697l-9.268-9.268l1.026-1.535c5.711-8.545,9.535-18.02,11.369-28.156l0.335-1.85h14.591
		c0.65,0,1.2-0.551,1.2-1.201v-23.043c0-0.65-0.55-1.2-1.2-1.2h-14.974l-0.379-1.782c-2.032-9.559-5.865-18.505-11.393-26.59
		l-1.055-1.541l10.566-10.565c0.302-0.302,0.347-0.661,0.347-0.849s-0.045-0.547-0.347-0.85l-16.293-16.293
		c-0.461-0.461-1.239-0.461-1.699,0l-10.73,10.729l-1.531-1.009c-8.225-5.418-17.289-9.106-26.941-10.961l-1.826-0.351v-14.163
		c0-0.65-0.55-1.199-1.201-1.199h-23.041c-0.65,0-1.201,0.549-1.201,1.199v14.264l-1.807,0.363
		c-9.579,1.926-18.57,5.666-26.724,11.113l-1.535,1.026l-11.343-11.343c-0.461-0.461-1.239-0.461-1.699,0l-16.293,16.294
		c-0.46,0.46-0.46,1.236,0,1.698l11.3,11.299l-1.037,1.537c-5.374,7.971-9.112,16.781-11.112,26.189l-0.379,1.782h-14.524
		c-0.651,0-1.201,0.55-1.201,1.2v23.043c0,0.65,0.55,1.201,1.201,1.201h14.142l0.335,1.85c1.802,9.958,5.537,19.291,11.104,27.742
		l1.009,1.531l-10.016,10.016c-0.459,0.459-0.459,1.238,0,1.699l16.293,16.293c0.303,0.301,0.662,0.346,0.85,0.346
		s0.546-0.045,0.848-0.346L-2790.871,1061.443z"/>
	<rect x="-2514.727" y="2850.725" display="inline" fill="#29B473" width="750" height="308.32"/>
	<rect x="-2514.727" y="2850.725" display="inline" fill="#209C64" width="750" height="69.371"/>
	<g display="inline">
		<g>
			<g>
				<path fill="#FFFFFF" d="M-3895.766,880.758l-16.694,16.695c1.502,1.092,3.349,1.738,5.345,1.738h19.147v-14.865
					C-3890.906,883.855-3893.581,882.593-3895.766,880.758z"/>
				<path fill="#FFFFFF" d="M-3901.351,870.944h-14.864v19.147c0,1.511,0.371,2.935,1.024,4.191l16.597-16.598
					C-3899.988,875.717-3900.953,873.424-3901.351,870.944z"/>
				<rect x="-3882.832" y="893.263" fill="#FFFFFF" width="17.728" height="5.929"/>
				<path fill="#FFFFFF" d="M-3887.968,844.579v-7.018h-19.147c-4.309,0-7.914,2.996-8.857,7.018h6.304H-3887.968z"/>
				<rect x="-3916.215" y="848.752" fill="#FFFFFF" width="6.546" height="17.056"/>
				<path fill="#FFFFFF" d="M-3854.827,844.579c-0.943-4.021-4.549-7.018-8.857-7.018h-19.146v7.018H-3854.827z"/>
				<path fill="#FFFFFF" d="M-3887.968,848.752h-17.527v17.056h4.145c1.101-6.855,6.526-12.283,13.383-13.383V848.752z"/>
				<path fill="#FFFFFF" d="M-3882.831,852.428c6.622,1.062,11.913,6.159,13.256,12.686h-7.338
					c-1.314-3.407-4.621-5.832-8.487-5.832c-5.015,0-9.095,4.08-9.095,9.095c0,5.014,4.08,9.097,9.095,9.097
					c3.864,0,7.173-2.426,8.485-5.832h7.34c-1.344,6.524-6.635,11.622-13.257,12.686v4.765h17.728v-40.339h-17.727V852.428z"/>
				<path fill="#FFFFFF" d="M-3860.93,898.764c3.679-1.166,6.346-4.608,6.346-8.672v-41.34h-6.346V898.764z"/>
			</g>
		</g>
		<g>
			<path fill="#FFFFFF" d="M-3816.155,861.893c-1.404-1.754-4.035-2.851-6.447-2.851c-5.089,0-8.246,3.64-8.246,8.685
				c0,5.309,3.465,8.598,8.246,8.598c2.938,0,5.744-1.492,7.018-3.598l7.457,1.931c-2.546,5.44-8.027,9.036-14.475,9.036
				c-8.817,0-15.924-6.711-15.924-15.967c0-9.255,7.106-15.966,15.924-15.966c6.053,0,11.229,3.246,13.949,8.158L-3816.155,861.893z
				"/>
			<path fill="#FFFFFF" d="M-3777.729,876.193v6.886h-21.889v-30.705h7.371v23.819H-3777.729z"/>
			<path fill="#FFFFFF" d="M-3747.462,879.132h-14.124l-1.799,3.947h-8.201l14.476-30.705h5.173l14.476,30.705h-8.201
				L-3747.462,879.132z M-3750.576,872.245l-3.51-7.765l-0.438-1.227l-0.438,1.227l-3.511,7.765H-3750.576z"/>
			<path fill="#FFFFFF" d="M-3702.981,852.374v30.705h-6.932l-12.72-16.404l-0.615-1.142l0.089,1.142v16.404h-7.371v-30.705h6.932
				l12.722,16.187l0.614,1.14l-0.09-1.14v-16.187H-3702.981z"/>
			<path fill="#FFFFFF" d="M-3668.058,879.13h-14.125l-1.796,3.951h-8.203l14.476-30.71h5.175l14.476,30.71h-8.203L-3668.058,879.13
				z M-3671.171,872.243l-3.51-7.764l-0.438-1.229l-0.438,1.229l-3.511,7.764H-3671.171z"/>
			<path fill="#FFFFFF" d="M-3639.412,852.371c7.544,0,12.105,3.947,12.105,10.531c0,6.578-4.562,10.525-12.105,10.525h-4.344v9.653
				h-7.367v-30.71H-3639.412z M-3639.542,866.541c2.851,0,4.56-1.359,4.56-3.639c0-2.281-1.709-3.641-4.56-3.641h-4.213v7.279
				H-3639.542z"/>
			<path fill="#FFFFFF" d="M-3607.347,852.371c7.547,0,12.108,3.947,12.108,10.531c0,6.578-4.562,10.525-12.108,10.525h-4.343v9.653
				h-7.369v-30.71H-3607.347z M-3607.478,866.541c2.853,0,4.562-1.359,4.562-3.639c0-2.281-1.71-3.641-4.562-3.641h-4.212v7.279
				H-3607.478z"/>
		</g>
	</g>
	<g display="inline">
		<g>
			
				<line fill="none" stroke="#FFFFFF" stroke-width="5" stroke-linecap="round" stroke-miterlimit="10" x1="-4087.23" y1="853.47" x2="-4049.759" y2="853.47"/>
			
				<line fill="none" stroke="#FFFFFF" stroke-width="5" stroke-linecap="round" stroke-miterlimit="10" x1="-4087.23" y1="868.377" x2="-4049.759" y2="868.377"/>
			
				<line fill="none" stroke="#FFFFFF" stroke-width="5" stroke-linecap="round" stroke-miterlimit="10" x1="-4087.23" y1="883.284" x2="-4049.759" y2="883.284"/>
		</g>
	</g>
	<g display="inline">
		<path fill="#FFFFFF" d="M-3795.322,1376.696c-3.923,0-7.062,3.125-7.062,7.048c0,3.937,3.139,7.218,7.062,7.218
			c4.106,0,7.218-3.281,7.218-7.218C-3788.104,1379.821-3791.215,1376.696-3795.322,1376.696z"/>
		<path fill="#209C64" d="M-3795.322,1369.648c-8.028,0-14.593,6.563-14.593,14.593c0,8.199,14.593,27.041,14.593,27.041
			c0.681-0.811,14.619-19.012,14.619-27.041S-3787.266,1369.818-3795.322,1369.648z M-3795.322,1390.962
			c-3.923,0-7.062-3.281-7.062-7.218c0-3.923,3.139-7.048,7.062-7.048c4.106,0,7.218,3.125,7.218,7.048
			C-3788.104,1387.681-3791.215,1390.962-3795.322,1390.962z"/>
	</g>
	
		<line display="inline" fill="none" stroke="#209C64" stroke-miterlimit="10" x1="-4130.727" y1="947.936" x2="-3380.727" y2="947.936"/>
	<g display="inline">
		<polygon fill="#FFFFFF" points="-3504.085,1103.368 -3504.085,1118.956 -3504.085,1118.978 -3451.719,1118.978 
			-3443.128,1111.173 -3451.719,1103.368 		"/>
		<path fill="#29B473" d="M-3482.897,1099.378v-11.6h-4.009v11.6h-21.188v23.587h21.188v58.771h4.009v-58.771h32.79l13.191-11.792
			l-13.191-11.795H-3482.897z M-3451.719,1118.978h-52.366v-0.021v-15.588h52.366l8.591,7.805L-3451.719,1118.978z"/>
	</g>
	<g display="inline">
		<path fill="#FFFFFF" stroke="#FFFFFF" stroke-miterlimit="10" d="M-3430.002,868.323c-0.055,2.631-1.638,5.025-4.135,5.949
			c-2.49,0.921-5.341,0.164-7.058-1.857c-3.774-4.445,0.28-11.383,5.995-10.332C-3432.18,862.64-3430.065,865.292-3430.002,868.323
			c0.013,0.598,0.939,0.6,0.928,0c-0.062-3.004-1.855-5.709-4.688-6.796c-2.865-1.101-6.221-0.208-8.176,2.151
			c-1.927,2.326-2.217,5.703-0.688,8.314c1.525,2.604,4.568,3.998,7.534,3.492c3.488-0.596,5.944-3.68,6.017-7.162
			C-3429.063,867.727-3429.99,867.727-3430.002,868.323"/>
		<path fill="#FFFFFF" stroke="#FFFFFF" stroke-miterlimit="10" d="M-3434.084,887.784h-4.75c-0.648,0-1.176-0.527-1.176-1.176
			v-2.321c-1.889-0.425-3.667-1.176-5.295-2.235l-1.49,1.49c-0.222,0.222-0.517,0.344-0.831,0.344s-0.609-0.122-0.831-0.344
			l-3.36-3.359c-0.458-0.458-0.458-1.203,0-1.662l1.534-1.533c-1.035-1.652-1.758-3.454-2.149-5.365h-2.146
			c-0.648,0-1.176-0.527-1.176-1.176v-4.75c0-0.648,0.527-1.176,1.176-1.176h2.248c0.424-1.795,1.142-3.486,2.136-5.039
			l-1.791-1.791c-0.459-0.459-0.459-1.205,0-1.663l3.358-3.359c0.459-0.458,1.204-0.458,1.663,0l1.804,1.804
			c1.589-1.01,3.318-1.729,5.15-2.143v-2.186c0-0.648,0.527-1.175,1.176-1.175h4.75c0.648,0,1.176,0.526,1.176,1.175v2.158
			c1.847,0.4,3.591,1.109,5.195,2.115l1.681-1.682c0.458-0.457,1.204-0.457,1.662,0l3.359,3.359
			c0.222,0.223,0.344,0.518,0.344,0.832s-0.122,0.609-0.343,0.831l-1.638,1.638c1.025,1.576,1.762,3.297,2.194,5.125h2.34
			c0.648,0,1.176,0.527,1.176,1.176v4.75c0,0.648-0.527,1.176-1.176,1.176h-2.238c-0.399,1.948-1.139,3.779-2.204,5.455l1.376,1.375
			c0.459,0.459,0.459,1.204,0,1.662l-3.359,3.359c-0.458,0.459-1.204,0.459-1.662,0l-1.364-1.363
			c-1.641,1.051-3.435,1.791-5.343,2.203v2.295C-3432.909,887.257-3433.436,887.784-3434.084,887.784 M-3445.42,880.854l0.317,0.217
			c1.718,1.175,3.618,1.978,5.648,2.385l0.372,0.075v3.077c0,0.135,0.113,0.248,0.248,0.248h4.75c0.134,0,0.248-0.113,0.248-0.248
			v-3.057l0.376-0.072c2.052-0.394,3.968-1.184,5.696-2.35l0.316-0.214l1.901,1.901c0.095,0.096,0.256,0.096,0.351,0l3.359-3.359
			c0.095-0.094,0.095-0.255,0-0.35l-1.91-1.91l0.211-0.316c1.178-1.763,1.966-3.717,2.345-5.807l0.068-0.381h3.009
			c0.134,0,0.248-0.113,0.248-0.248v-4.75c0-0.135-0.114-0.248-0.248-0.248h-3.088l-0.078-0.367
			c-0.419-1.971-1.209-3.816-2.349-5.483l-0.218-0.317l2.179-2.179c0.062-0.062,0.072-0.136,0.072-0.175s-0.01-0.113-0.072-0.176
			l-3.358-3.359c-0.096-0.095-0.256-0.095-0.351,0l-2.213,2.213l-0.315-0.208c-1.696-1.117-3.564-1.878-5.556-2.261l-0.376-0.072
			v-2.92c0-0.134-0.114-0.247-0.248-0.247h-4.75c-0.135,0-0.248,0.113-0.248,0.247v2.941l-0.372,0.074
			c-1.976,0.397-3.829,1.169-5.511,2.293l-0.316,0.211l-2.339-2.339c-0.095-0.095-0.255-0.095-0.351,0l-3.359,3.359
			c-0.095,0.095-0.095,0.255,0,0.351l2.33,2.329l-0.214,0.317c-1.107,1.644-1.879,3.46-2.291,5.4l-0.078,0.367h-2.995
			c-0.134,0-0.248,0.113-0.248,0.248v4.75c0,0.135,0.114,0.248,0.248,0.248h2.916l0.069,0.381c0.372,2.054,1.142,3.979,2.289,5.721
			l0.208,0.315l-2.064,2.065c-0.096,0.094-0.096,0.256,0,0.35l3.359,3.359c0.062,0.062,0.137,0.072,0.175,0.072
			c0.039,0,0.112-0.01,0.175-0.072L-3445.42,880.854z"/>
	</g>
	<rect x="-2614.063" y="-259.419" display="inline" fill="#FFFFFF" width="750" height="164.837"/>
	<rect x="-1072.693" y="-430.78" display="inline" fill="#FFFFFF" width="750" height="164.838"/>
	<g display="inline">
		<g>
			<g>
				<path fill="#29B473" d="M-2644.181-744.475l-23.066,23.067c2.075,1.508,4.627,2.402,7.385,2.402h26.456v-20.539
					C-2637.466-740.195-2641.161-741.94-2644.181-744.475z"/>
				<path fill="#29B473" d="M-2651.897-758.034h-20.537v26.455c0,2.088,0.513,4.055,1.416,5.792l22.93-22.932
					C-2650.014-751.439-2651.347-754.608-2651.897-758.034z"/>
				<rect x="-2626.31" y="-727.197" fill="#29B473" width="24.493" height="8.191"/>
				<path fill="#29B473" d="M-2633.406-794.461v-9.696h-26.456c-5.953,0-10.934,4.139-12.237,9.696h8.709H-2633.406z"/>
				<rect x="-2672.435" y="-788.695" fill="#29B473" width="9.044" height="23.564"/>
				<path fill="#29B473" d="M-2587.617-794.461c-1.303-5.557-6.284-9.696-12.237-9.696h-26.454v9.696H-2587.617z"/>
				<path fill="#29B473" d="M-2633.406-788.695h-24.218v23.564h5.727c1.521-9.472,9.017-16.971,18.491-18.49V-788.695z"/>
				<path fill="#29B473" d="M-2626.309-783.617c9.149,1.467,16.459,8.51,18.315,17.527h-10.139
					c-1.816-4.708-6.385-8.058-11.727-8.058c-6.928,0-12.565,5.637-12.565,12.565c0,6.928,5.638,12.569,12.565,12.569
					c5.339,0,9.91-3.352,11.725-8.058h10.141c-1.856,9.015-9.168,16.058-18.316,17.527v6.583h24.493v-55.734h-24.492V-783.617z"/>
				<path fill="#29B473" d="M-2596.05-719.597c5.083-1.611,8.768-6.367,8.768-11.982v-57.116h-8.768V-719.597z"/>
			</g>
		</g>
		<g>
			<path fill="#29B473" d="M-2534.187-770.54c-1.94-2.423-5.575-3.938-8.907-3.938c-7.031,0-11.394,5.029-11.394,11.999
				c0,7.334,4.787,11.879,11.394,11.879c4.06,0,7.936-2.062,9.695-4.971l10.303,2.667c-3.517,7.518-11.091,12.485-19.998,12.485
				c-12.183,0-22.001-9.272-22.001-22.061c0-12.787,9.818-22.059,22.001-22.059c8.362,0,15.514,4.485,19.272,11.272
				L-2534.187-770.54z"/>
			<path fill="#29B473" d="M-2481.095-750.781v9.514h-30.243v-42.424h10.185v32.91H-2481.095z"/>
			<path fill="#29B473" d="M-2439.278-746.722h-19.514l-2.485,5.454h-11.331l20-42.424h7.146l20.001,42.424h-11.331
				L-2439.278-746.722z M-2443.579-756.236l-4.85-10.728l-0.605-1.695l-0.605,1.695l-4.852,10.728H-2443.579z"/>
			<path fill="#29B473" d="M-2377.819-783.691v42.424h-9.577l-17.574-22.665l-0.851-1.577l0.123,1.577v22.665h-10.185v-42.424h9.577
				l17.576,22.364l0.85,1.574l-0.124-1.574v-22.364H-2377.819z"/>
			<path fill="#29B473" d="M-2329.569-746.724h-19.516l-2.481,5.459h-11.333l20-42.431h7.149l20,42.431h-11.334L-2329.569-746.724z
				 M-2333.87-756.239l-4.85-10.727l-0.605-1.697l-0.605,1.697l-4.852,10.727H-2333.87z"/>
			<path fill="#29B473" d="M-2289.989-783.695c10.423,0,16.725,5.454,16.725,14.551c0,9.088-6.302,14.542-16.725,14.542h-6.002
				v13.338h-10.179v-42.431H-2289.989z M-2290.171-764.118c3.939,0,6.301-1.878,6.301-5.027c0-3.152-2.361-5.03-6.301-5.03h-5.82
				v10.057H-2290.171z"/>
			<path fill="#29B473" d="M-2245.688-783.695c10.428,0,16.73,5.454,16.73,14.551c0,9.088-6.303,14.542-16.73,14.542h-5.999v13.338
				h-10.182v-42.431H-2245.688z M-2245.869-764.118c3.941,0,6.305-1.878,6.305-5.027c0-3.152-2.363-5.03-6.305-5.03h-5.818v10.057
				H-2245.869z"/>
		</g>
	</g>
	
		<text transform="matrix(1 0 0 1 -2519.1016 -616.1978)" display="inline" fill="#FFFFFF" font-family="'Novecentowide-Medium'" font-size="35.0005" letter-spacing="3">LOGIN</text>
</g>
</svg>
