<?xml version="1.0" encoding="utf-8"?>
<!-- Generator: Adobe Illustrator 16.0.4, SVG Export Plug-In . SVG Version: 6.00 Build 0)  -->
<!DOCTYPE svg PUBLIC "-//W3C//DTD SVG 1.1//EN" "http://www.w3.org/Graphics/SVG/1.1/DTD/svg11.dtd">
<svg version="1.1" id="Layer_1" xmlns="http://www.w3.org/2000/svg" xmlns:xlink="http://www.w3.org/1999/xlink" x="0px" y="0px"
	 width="740.516px" height="173.147px" viewBox="0 0 740.516 173.147" enable-background="new 0 0 740.516 173.147"
	 xml:space="preserve">
<g>
	<g>
		<path fill="#FFFFFF" d="M57.451,121.357L10.547,168.26c4.219,3.069,9.407,4.887,15.016,4.887h53.795v-41.766
			C71.103,130.058,63.589,126.51,57.451,121.357z"/>
		<path fill="#FFFFFF" d="M41.758,93.785H0v53.795c0,4.245,1.042,8.243,2.876,11.774l46.628-46.628
			C45.588,107.194,42.877,100.753,41.758,93.785z"/>
		<rect x="93.787" y="156.49" fill="#FFFFFF" width="49.806" height="16.657"/>
		<path fill="#FFFFFF" d="M79.358,19.715V0H25.562C13.459,0,3.326,8.417,0.68,19.715h17.71H79.358z"/>
		<rect y="31.44" fill="#FFFFFF" width="18.39" height="47.918"/>
		<path fill="#FFFFFF" d="M172.463,19.715C169.817,8.417,159.686,0,147.581,0H93.79v19.715H172.463z"/>
		<path fill="#FFFFFF" d="M79.358,31.44H30.115v47.918h11.643c3.091-19.263,18.337-34.511,37.6-37.601V31.44z"/>
		<path fill="#FFFFFF" d="M93.79,41.766c18.604,2.983,33.47,17.305,37.243,35.641h-20.616c-3.695-9.575-12.984-16.385-23.844-16.385
			c-14.089,0-25.553,11.46-25.553,25.548c0,14.087,11.464,25.559,25.553,25.559c10.855,0,20.149-6.816,23.84-16.387h20.62
			c-3.777,18.332-18.641,32.654-37.246,35.639v13.386h49.806V31.44H93.79V41.766z"/>
		<path fill="#FFFFFF" d="M155.32,171.943c10.333-3.276,17.825-12.946,17.825-24.362V31.44H155.32V171.943z"/>
	</g>
</g>
<g>
	<path fill="#FFFFFF" d="M250.756,75.047c-3.141-3.926-9.031-6.38-14.431-6.38c-11.388,0-18.456,8.146-18.456,19.436
		c0,11.88,7.757,19.243,18.456,19.243c6.577,0,12.856-3.338,15.707-8.052l16.689,4.321c-5.698,12.171-17.966,20.221-32.396,20.221
		c-19.733,0-35.637-15.02-35.637-35.733s15.904-35.733,35.637-35.733c13.546,0,25.132,7.265,31.217,18.26L250.756,75.047z"/>
	<path fill="#FFFFFF" d="M336.753,107.051v15.412h-48.988V53.744h16.496v53.308H336.753z"/>
	<path fill="#FFFFFF" d="M404.49,113.626h-31.612l-4.025,8.837h-18.355l32.396-68.719h11.579l32.396,68.719h-18.355L404.49,113.626z
		 M397.521,98.216l-7.856-17.377l-0.98-2.747l-0.982,2.747l-7.854,17.377H397.521z"/>
	<path fill="#FFFFFF" d="M504.033,53.744v68.719h-15.506l-28.473-36.715l-1.373-2.553l0.195,2.553v36.715h-16.494V53.744h15.514
		l28.469,36.225l1.373,2.551l-0.199-2.551V53.744H504.033z"/>
</g>
<path fill="#FFFFFF" d="M577.549,112.256h-31.611l-4.021,8.841h-18.357l32.395-68.727h11.584l32.395,68.727h-18.357L577.549,112.256
	z M570.58,96.842l-7.854-17.375l-0.982-2.75l-0.982,2.75l-7.855,17.375H570.58z"/>
<path fill="#FFFFFF" d="M641.658,52.371c16.885,0,27.092,8.833,27.092,23.565c0,14.725-10.207,23.558-27.092,23.558h-9.721v21.604
	h-16.492V52.371H641.658z M641.365,84.083c6.379,0,10.205-3.046,10.205-8.147s-3.826-8.147-10.205-8.147h-9.428v16.295H641.365z"/>
<path fill="#FFFFFF" d="M713.418,52.371c16.889,0,27.098,8.833,27.098,23.565c0,14.725-10.209,23.558-27.098,23.558h-9.719v21.604
	h-16.492V52.371H713.418z M713.123,84.083c6.383,0,10.213-3.046,10.213-8.147s-3.83-8.147-10.213-8.147h-9.424v16.295H713.123z"/>
</svg>
