<?xml version="1.0" encoding="utf-8"?>
<!-- Generator: Adobe Illustrator 16.0.4, SVG Export Plug-In . SVG Version: 6.00 Build 0)  -->
<!DOCTYPE svg PUBLIC "-//W3C//DTD SVG 1.1//EN" "http://www.w3.org/Graphics/SVG/1.1/DTD/svg11.dtd">
<svg version="1.1" id="Layer_1" xmlns="http://www.w3.org/2000/svg" xmlns:xlink="http://www.w3.org/1999/xlink" x="0px" y="0px"
	 width="792px" height="612px" viewBox="0 0 792 612" enable-background="new 0 0 792 612" xml:space="preserve">
<g>
	<g>
		<path fill="#FFFFFF" d="M200.31,324.05l-46.904,46.903c4.219,3.069,9.407,4.887,15.016,4.887h53.795v-41.766
			C213.962,332.751,206.448,329.203,200.31,324.05z"/>
		<path fill="#FFFFFF" d="M184.617,296.478h-41.758v53.795c0,4.245,1.042,8.243,2.876,11.774l46.628-46.628
			C188.447,309.887,185.736,303.446,184.617,296.478z"/>
		<rect x="236.646" y="359.183" fill="#FFFFFF" width="49.806" height="16.657"/>
		<path fill="#FFFFFF" d="M222.217,222.408v-19.715h-53.795c-12.104,0-22.236,8.417-24.883,19.715h17.71H222.217z"/>
		<rect x="142.859" y="234.133" fill="#FFFFFF" width="18.39" height="47.918"/>
		<path fill="#FFFFFF" d="M315.322,222.408c-2.646-11.298-12.777-19.715-24.883-19.715h-53.791v19.715H315.322z"/>
		<path fill="#FFFFFF" d="M222.217,234.133h-49.243v47.918h11.643c3.091-19.263,18.337-34.511,37.6-37.601V234.133z"/>
		<path fill="#FFFFFF" d="M236.648,244.458c18.604,2.983,33.47,17.305,37.243,35.641h-20.616
			c-3.695-9.575-12.984-16.385-23.844-16.385c-14.089,0-25.553,11.46-25.553,25.548c0,14.087,11.464,25.559,25.553,25.559
			c10.855,0,20.149-6.816,23.84-16.387h20.62c-3.777,18.332-18.641,32.654-37.246,35.639v13.386h49.806V234.133h-49.803V244.458z"/>
		<path fill="#FFFFFF" d="M298.179,374.636c10.333-3.276,17.825-12.946,17.825-24.362V234.133h-17.825V374.636z"/>
	</g>
</g>
<g>
	<path fill="#FFFFFF" d="M413.615,234.133c-3.141-3.926-9.031-6.38-14.431-6.38c-11.388,0-18.456,8.146-18.456,19.436
		c0,11.88,7.757,19.243,18.456,19.243c6.577,0,12.856-3.338,15.707-8.052l16.689,4.321c-5.698,12.171-17.966,20.221-32.396,20.221
		c-19.733,0-35.637-15.02-35.637-35.733s15.904-35.733,35.637-35.733c13.546,0,25.132,7.265,31.217,18.26L413.615,234.133z"/>
	<path fill="#FFFFFF" d="M499.612,266.137v15.412h-48.988v-68.719h16.496v53.308H499.612z"/>
	<path fill="#FFFFFF" d="M567.349,272.711h-31.611l-4.025,8.837h-18.355l32.396-68.719h11.579l32.396,68.719h-18.355
		L567.349,272.711z M560.38,257.301l-7.855-17.377l-0.98-2.747l-0.982,2.747l-7.854,17.377H560.38z"/>
	<path fill="#FFFFFF" d="M666.892,212.829v68.719h-15.505l-28.473-36.715l-1.373-2.553l0.195,2.553v36.715h-16.494v-68.719h15.514
		l28.468,36.225l1.373,2.551l-0.199-2.551v-36.225H666.892z"/>
	<path fill="#FFFFFF" d="M414.105,358.237h-31.612l-4.022,8.841h-18.356l32.395-68.727h11.584l32.394,68.727H418.13L414.105,358.237
		z M407.137,342.823l-7.854-17.375l-0.982-2.75l-0.981,2.75l-7.856,17.375H407.137z"/>
	<path fill="#FFFFFF" d="M478.214,298.352c16.885,0,27.093,8.833,27.093,23.565c0,14.725-10.208,23.558-27.093,23.558h-9.721v21.604
		h-16.492v-68.727H478.214z M477.921,330.064c6.379,0,10.206-3.046,10.206-8.147s-3.827-8.147-10.206-8.147h-9.428v16.295H477.921z"
		/>
	<path fill="#FFFFFF" d="M549.974,298.352c16.889,0,27.098,8.833,27.098,23.565c0,14.725-10.209,23.558-27.098,23.558h-9.718v21.604
		h-16.492v-68.727H549.974z M549.679,330.064c6.384,0,10.213-3.046,10.213-8.147s-3.829-8.147-10.213-8.147h-9.423v16.295H549.679z"
		/>
</g>
</svg>
