<?xml version="1.0" encoding="utf-8"?>
<!-- Generator: Adobe Illustrator 16.0.4, SVG Export Plug-In . SVG Version: 6.00 Build 0)  -->
<!DOCTYPE svg PUBLIC "-//W3C//DTD SVG 1.1//EN" "http://www.w3.org/Graphics/SVG/1.1/DTD/svg11.dtd">
<svg version="1.1" id="Layer_1" xmlns="http://www.w3.org/2000/svg" xmlns:xlink="http://www.w3.org/1999/xlink" x="0px" y="0px"
	 width="173.145px" height="173.147px" viewBox="0 0 173.145 173.147" enable-background="new 0 0 173.145 173.147"
	 xml:space="preserve">
<g>
	<g>
		<path fill="#FFFFFF" d="M57.451,121.357L10.547,168.26c4.219,3.069,9.407,4.887,15.016,4.887h53.795v-41.766
			C71.103,130.058,63.589,126.51,57.451,121.357z"/>
		<path fill="#FFFFFF" d="M41.758,93.785H0v53.795c0,4.245,1.042,8.243,2.876,11.774l46.628-46.628
			C45.588,107.194,42.877,100.753,41.758,93.785z"/>
		<rect x="93.787" y="156.49" fill="#FFFFFF" width="49.806" height="16.657"/>
		<path fill="#FFFFFF" d="M79.358,19.715V0H25.562C13.459,0,3.326,8.417,0.68,19.715h17.71H79.358z"/>
		<rect y="31.44" fill="#FFFFFF" width="18.39" height="47.918"/>
		<path fill="#FFFFFF" d="M172.463,19.715C169.817,8.417,159.686,0,147.581,0H93.79v19.715H172.463z"/>
		<path fill="#FFFFFF" d="M79.358,31.44H30.115v47.918h11.643c3.091-19.263,18.337-34.511,37.6-37.601V31.44z"/>
		<path fill="#FFFFFF" d="M93.79,41.766c18.604,2.983,33.47,17.305,37.243,35.641h-20.616c-3.695-9.575-12.984-16.385-23.844-16.385
			c-14.089,0-25.553,11.46-25.553,25.548c0,14.087,11.464,25.559,25.553,25.559c10.855,0,20.149-6.816,23.84-16.387h20.62
			c-3.777,18.332-18.641,32.654-37.246,35.639v13.386h49.806V31.44H93.79V41.766z"/>
		<path fill="#FFFFFF" d="M155.32,171.943c10.333-3.276,17.825-12.946,17.825-24.362V31.44H155.32V171.943z"/>
	</g>
</g>
</svg>
