<?xml version="1.0" encoding="utf-8"?>
<!-- Generator: Adobe Illustrator 16.0.4, SVG Export Plug-In . SVG Version: 6.00 Build 0)  -->
<!DOCTYPE svg PUBLIC "-//W3C//DTD SVG 1.1//EN" "http://www.w3.org/Graphics/SVG/1.1/DTD/svg11.dtd">
<svg version="1.1" id="Layer_1" xmlns="http://www.w3.org/2000/svg" xmlns:xlink="http://www.w3.org/1999/xlink" x="0px" y="0px"
	 width="792px" height="612px" viewBox="0 0 792 612" enable-background="new 0 0 792 612" xml:space="preserve">
<g>
	<g>
		<path fill="#FFFFFF" d="M200.31,324.05l-46.904,46.903c4.219,3.069,9.407,4.887,15.016,4.887h53.795v-41.766
			C213.962,332.751,206.448,329.203,200.31,324.05z"/>
		<path fill="#FFFFFF" d="M184.617,296.478h-41.758v53.795c0,4.245,1.042,8.243,2.876,11.774l46.628-46.628
			C188.447,309.887,185.736,303.446,184.617,296.478z"/>
		<rect x="236.646" y="359.183" fill="#FFFFFF" width="49.806" height="16.657"/>
		<path fill="#FFFFFF" d="M222.217,222.408v-19.715h-53.795c-12.104,0-22.236,8.417-24.883,19.715h17.71H222.217z"/>
		<rect x="142.859" y="234.133" fill="#FFFFFF" width="18.39" height="47.918"/>
		<path fill="#FFFFFF" d="M315.322,222.408c-2.646-11.298-12.777-19.715-24.883-19.715h-53.791v19.715H315.322z"/>
		<path fill="#FFFFFF" d="M222.217,234.133h-49.243v47.918h11.643c3.091-19.263,18.337-34.511,37.6-37.601V234.133z"/>
		<path fill="#FFFFFF" d="M236.648,244.458c18.604,2.983,33.47,17.305,37.243,35.641h-20.616
			c-3.695-9.575-12.984-16.385-23.844-16.385c-14.089,0-25.553,11.46-25.553,25.548c0,14.087,11.464,25.559,25.553,25.559
			c10.855,0,20.149-6.816,23.84-16.387h20.62c-3.777,18.332-18.641,32.654-37.246,35.639v13.386h49.806V234.133h-49.803V244.458z"/>
		<path fill="#FFFFFF" d="M298.179,374.636c10.333-3.276,17.825-12.946,17.825-24.362V234.133h-17.825V374.636z"/>
	</g>
</g>
</svg>
